# xmcd
#
# Track frame offsets:
#	150
#	12825
#	27415
#	40506
#	52208
#	65741
#	78859
#	91267
#	104086
#	115347
#	119957
#	126515
#	138726
#	153248
#	166436
#	177979
#	190073
#	204140
#	217408
#	232237
#
# Disc length: 3278 seconds
#
# Revision: 0
# Processed by: cddbd v1.5.2PL0 Copyright (c) Steve Scherf et al.
# Submitted via: EasyCDDAExtractor 16.0.6.1
#
DISCID=310ccc14
DTITLE=Συλλογικός δίσκος - Τραγούδια 45 στροφές-Αναγνωστάκης Πέτρος 2
DYEAR=2000
DGENRE=Λαϊκή
TTITLE0=Αναγνωστάκης Πέτρος - Κατεδαφίζεται [1963, Κώστας Βίρβος-Χρ. Κυρίτσης]
TTITLE1=Αναγνωστάκης Πέτρος-Αντωνάτου Νίτσα - Θα φύγω από κοντά σου [1963, Π. 
TTITLE1=Γαβαλάς-Στέλ. Κορσαβίδης/Αντ. Κουλούρης]
TTITLE2=Αναγνωστάκης Πέτρος-Καλάκη Ρούλα - Μη ξεχνάς ότι είμαστε άνθρωποι [196
TTITLE2=3, Γ. Μανησαλής-Κ. Ψυχογιός]
TTITLE3=Αναγνωστάκης Πέτρος-Παυλοπούλου Δόξα - Το κλάμα της βροχής [1963, Δημή
TTITLE3=τρρης Γκούτης]
TTITLE4=Αναγνωστάκης Πέτρος-Ντάλμας Μαίρη - Αθήνα ώρα 12 [1964, Νάκη Πετρίδη-Η
TTITLE4=ρακλής Παπασιδέρης]
TTITLE5=Αναγνωστάκης Πέτρος-Γέρακα Καίτη - Αν δεν φοβάσαι τη φτώχεια [1963, Θε
TTITLE5=όδωρος Δερβενιώτης-Κώστας Βίρβος]
TTITLE6=Αναγνωστάκης Πέτρος-Καλάκη Ρούλα - Μαθημένα τα βουνά [1963, Κώστας Βίρ
TTITLE6=βος-Χρ. Κυρίτσης]
TTITLE7=Αναγνωστάκης Πέτρος-Αντωνάτου Νίτσα - Αν μπορέσεις, να με σώσεις [1963
TTITLE7=, Κώστας Βίρβος-Γ. Μανησαλής]
TTITLE8=Αναγνωστάκης Πέτρος-Διαμάντη Λίτσα - Τώρα που ήρθες [1965, Νίκος Μεϊμά
TTITLE8=ρης-Βαγγέλης Ατραΐδης]
TTITLE9=Αναγνωστάκης Πέτρος-Κούρτη Ρία - Τι όμορφη που είσαι, όταν κλαις [1960
TTITLE9=, Στέλιος Χρυσίνης-Χρήστος Κολοκοτρώνης]
TTITLE10=Αναγνωστάκης Πέτρος-Κούρτη Ρία - Απόψε φίλα με [1960, Μανώλης Χιώτης-
TTITLE10=Χρήστος Κολοκοτρώνης]
TTITLE11=Αναγνωστάκης Πέτρος-Καλάκη Ρούλα-Νόρμα Ρία - Κένεντυ [1964, Μπάμπης Μ
TTITLE11=πακάλης]
TTITLE12=Αναγνωστάκης Πέτρος-Καλάκη Ρούλα - Νά 'σαι καλά σαν τα ψηλά βουνά [19
TTITLE12=63, Γ. Μανησαλής-Κ. Ψυχογιός]
TTITLE13=Αναγνωστάκης Πέτρος-Αντωνάτου Νίτσα - Μετάνοιωσες αργά [1964, Κώστας 
TTITLE13=Βίρβος-Γ. Μανησαλής]
TTITLE14=Αναγνωστάκης Πέτρος-Αστέρη Ανθούλα - Από τη γη στον ουρανό (Το βουνό)
TTITLE14=[1963, Μπάμπης Μπακάλης-Δημήτρης Γκούτης]
TTITLE15=Αναγνωστάκης Πέτρος-Ντάλμας Μαίρη - Περιμένω, να γυρίσεις [1964, Γ. Μ
TTITLE15=ανησαλής-Κ. Ψυχογιός]
TTITLE16=Αναγνωστάκης Πέτρος-Ντάλμας Μαίρη - Όποιος δεν έζησε φτωχός [1964, Νά
TTITLE16=κη Πετρίδη-Ηρακλής Παπασιδέρης]
TTITLE17=Αναγνωστάκης Πέτρος-Τζοβάρα Κατερίνα - Άνθρωποι με κρίματα [1964, Ι. 
TTITLE17=Ηλιάδης]
TTITLE18=Αναγνωστάκης Πέτρος-Καλάκη Ρούλα - Το μυστικό μας [1963, Γιώργος Μανη
TTITLE18=σαλής-Κ. Ψυχογιός]
TTITLE19=Αναγνωστάκης Πέτρος - Όπως το ουράνιο τόξο [1963, Μπάμπης Μπακάλης]
EXTD=
EXTT0=
EXTT1=
EXTT2=
EXTT3=
EXTT4=
EXTT5=
EXTT6=
EXTT7=
EXTT8=
EXTT9=
EXTT10=
EXTT11=
EXTT12=
EXTT13=
EXTT14=
EXTT15=
EXTT16=
EXTT17=
EXTT18=
EXTT19=
PLAYORDER=
